<svg width="600" height="400" viewBox="0 0 600 400" fill="none" xmlns="http://www.w3.org/2000/svg">
<rect x="520" y="400" width="400" height="80" transform="rotate(-90 520 400)" fill="#394854"/>
<rect x="440" y="400" width="400" height="80" transform="rotate(-90 440 400)" fill="#F4F6FB"/>
<rect y="400" width="400" height="440" transform="rotate(-90 0 400)" fill="#BA2726"/>
<path d="M76.225 139V118H52.6V139H41.95V88.975H52.6V108.625H76.225V88.975H86.95V139H76.225ZM96.8084 139V88.975H132.208V98.125H107.458V109H131.683V118.15H107.458V129.775H132.208V139H96.8084ZM175.559 139L172.409 130.375H150.059L146.909 139H135.209L154.559 88.975H167.909L187.184 139H175.559ZM161.234 98.2L152.909 121.15H169.484L161.234 98.2ZM191.804 139V88.975H211.529C227.204 88.975 238.079 98.95 238.079 114.025C238.079 129.1 227.204 139 211.529 139H191.804ZM202.454 129.625H211.529C221.429 129.625 227.204 122.5 227.204 114.025C227.204 105.175 221.804 98.35 211.529 98.35H202.454V129.625ZM245.637 139V88.975H256.287V129.625H277.437V139H245.637ZM284.894 139V88.975H295.544V139H284.894ZM339.975 139L316.125 105.4V139H305.475V88.975H316.425L339.6 121.375V88.975H350.25V139H339.975ZM360.114 139V88.975H395.514V98.125H370.764V109H394.989V118.15H370.764V129.775H395.514V139H360.114ZM37.84 215.052L41.116 210.516C43.09 212.574 46.156 214.296 50.02 214.296C53.296 214.296 54.892 212.742 54.892 211.146C54.892 209.046 52.456 208.332 49.222 207.576C44.644 206.526 38.764 205.266 38.764 199.008C38.764 194.346 42.796 190.566 49.39 190.566C53.842 190.566 57.538 191.91 60.31 194.472L56.992 198.84C54.724 196.74 51.7 195.774 48.97 195.774C46.282 195.774 44.854 196.95 44.854 198.63C44.854 200.52 47.206 201.108 50.44 201.864C55.06 202.914 60.94 204.3 60.94 210.516C60.94 215.64 57.286 219.504 49.726 219.504C44.35 219.504 40.486 217.698 37.84 215.052ZM78.5216 219V216.438C77.1356 217.992 74.6996 219.504 71.3816 219.504C66.9296 219.504 64.8296 217.068 64.8296 213.12V198.714H70.1636V211.02C70.1636 213.834 71.6336 214.758 73.9016 214.758C75.9596 214.758 77.5976 213.624 78.5216 212.448V198.714H83.8556V219H78.5216ZM89.1519 219V190.986H94.4859V201.318C96.0819 199.26 98.3499 198.21 100.744 198.21C105.91 198.21 109.732 202.242 109.732 208.878C109.732 215.64 105.868 219.504 100.744 219.504C98.3079 219.504 96.0819 218.412 94.4859 216.438V219H89.1519ZM94.4859 212.49C95.3679 213.792 97.3419 214.758 99.0639 214.758C102.172 214.758 104.23 212.406 104.23 208.878C104.23 205.35 102.172 202.956 99.0639 202.956C97.3419 202.956 95.3679 203.964 94.4859 205.308V212.49ZM127.495 219V206.652C127.495 203.838 126.025 202.956 123.715 202.956C121.657 202.956 120.019 204.132 119.095 205.35V219H113.761V190.986H119.095V201.36C120.397 199.806 122.917 198.21 126.235 198.21C130.687 198.21 132.829 200.646 132.829 204.594V219H127.495ZM136.823 208.836C136.823 202.956 141.149 198.21 147.323 198.21C153.371 198.21 157.487 202.746 157.487 209.382V210.558H142.409C142.745 213.12 144.803 215.262 148.247 215.262C150.137 215.262 152.363 214.506 153.665 213.246L156.017 216.69C153.959 218.58 150.809 219.504 147.659 219.504C141.485 219.504 136.823 215.346 136.823 208.836ZM147.323 202.452C144.005 202.452 142.577 204.93 142.325 206.946H152.321C152.195 205.014 150.851 202.452 147.323 202.452ZM173.519 219V216.9C172.133 218.538 169.739 219.504 167.093 219.504C163.859 219.504 160.037 217.32 160.037 212.784C160.037 208.038 163.859 206.316 167.093 206.316C169.781 206.316 172.175 207.156 173.519 208.794V205.98C173.519 203.922 171.755 202.578 169.067 202.578C166.883 202.578 164.867 203.376 163.145 204.972L161.129 201.402C163.607 199.218 166.799 198.21 169.991 198.21C174.611 198.21 178.853 200.058 178.853 205.896V219H173.519ZM173.519 214.128V211.608C172.637 210.432 170.957 209.844 169.235 209.844C167.135 209.844 165.413 210.978 165.413 212.91C165.413 214.8 167.135 215.892 169.235 215.892C170.957 215.892 172.637 215.304 173.519 214.128ZM198.088 219V216.438C196.492 218.412 194.266 219.504 191.83 219.504C186.706 219.504 182.842 215.64 182.842 208.878C182.842 202.242 186.664 198.21 191.83 198.21C194.224 198.21 196.492 199.26 198.088 201.318V190.986H203.464V219H198.088ZM198.088 212.448V205.266C197.164 203.922 195.274 202.956 193.468 202.956C190.444 202.956 188.344 205.35 188.344 208.878C188.344 212.364 190.444 214.758 193.468 214.758C195.274 214.758 197.164 213.792 198.088 212.448ZM208.753 219V190.986H214.087V219H208.753ZM222.022 195.732C220.3 195.732 218.83 194.304 218.83 192.54C218.83 190.776 220.3 189.348 222.022 189.348C223.786 189.348 225.214 190.776 225.214 192.54C225.214 194.304 223.786 195.732 222.022 195.732ZM219.376 219V198.714H224.71V219H219.376ZM243.692 219V206.736C243.692 203.922 242.222 202.956 239.954 202.956C237.854 202.956 236.216 204.132 235.334 205.35V219H230V198.714H235.334V201.36C236.636 199.806 239.114 198.21 242.432 198.21C246.884 198.21 249.026 200.73 249.026 204.678V219H243.692ZM253.02 208.836C253.02 202.956 257.346 198.21 263.52 198.21C269.568 198.21 273.684 202.746 273.684 209.382V210.558H258.606C258.942 213.12 261 215.262 264.444 215.262C266.334 215.262 268.56 214.506 269.862 213.246L272.214 216.69C270.156 218.58 267.006 219.504 263.856 219.504C257.682 219.504 253.02 215.346 253.02 208.836ZM263.52 202.452C260.202 202.452 258.774 204.93 258.522 206.946H268.518C268.392 205.014 267.048 202.452 263.52 202.452ZM43.075 299V284.175H37.8V282.325H50.45V284.175H45.15V299H43.075ZM49.552 292.95C49.552 289.45 52.052 286.625 55.502 286.625C59.152 286.625 61.302 289.475 61.302 293.1V293.575H51.527C51.677 295.85 53.277 297.75 55.877 297.75C57.252 297.75 58.652 297.2 59.602 296.225L60.502 297.45C59.302 298.65 57.677 299.3 55.702 299.3C52.127 299.3 49.552 296.725 49.552 292.95ZM55.477 288.175C52.902 288.175 51.627 290.35 51.527 292.2H59.452C59.427 290.4 58.227 288.175 55.477 288.175ZM71.3582 299L67.7332 294.05L64.1082 299H61.9582L66.5832 292.8L62.2082 286.925H64.3832L67.7332 291.525L71.0832 286.925H73.2582L68.8832 292.8L73.5332 299H71.3582ZM78.7414 299.3C76.9664 299.3 76.0664 298.275 76.0664 296.475V288.575H74.0664V286.925H76.0664V283.625H77.9414V286.925H80.3914V288.575H77.9414V296.075C77.9414 296.975 78.3414 297.625 79.1664 297.625C79.6914 297.625 80.1914 297.4 80.4414 297.125L80.9914 298.525C80.5164 298.975 79.8414 299.3 78.7414 299.3ZM92.0604 299V285.075L89.3854 287.9L88.1354 286.625L92.3104 282.325H94.1354V299H92.0604ZM97.432 299V297.35C103.432 292.625 106.682 289.85 106.682 286.975C106.682 284.85 104.932 283.925 103.207 283.925C101.207 283.925 99.657 284.775 98.682 286.025L97.407 284.7C98.682 283.025 100.857 282.075 103.207 282.075C105.982 282.075 108.807 283.65 108.807 286.975C108.807 290.375 105.357 293.475 100.707 297.15H108.882V299H97.432ZM111.504 296.55L112.729 295.25C113.704 296.55 115.404 297.45 117.379 297.45C119.804 297.45 121.279 296.25 121.279 294.325C121.279 292.25 119.579 291.375 117.129 291.375C116.429 291.375 115.654 291.375 115.404 291.4V289.5C115.679 289.525 116.454 289.525 117.129 289.525C119.229 289.525 121.004 288.7 121.004 286.775C121.004 284.925 119.304 283.925 117.279 283.925C115.454 283.925 114.104 284.625 112.879 285.95L111.729 284.65C112.929 283.2 114.854 282.075 117.429 282.075C120.629 282.075 123.079 283.7 123.079 286.525C123.079 288.925 121.054 290.125 119.479 290.4C121.004 290.525 123.329 291.825 123.329 294.5C123.329 297.275 121.104 299.3 117.429 299.3C114.604 299.3 112.529 298.05 111.504 296.55ZM133.42 299V294.775H125.495V293.05L132.645 282.325H135.495V292.95H137.845V294.775H135.495V299H133.42ZM133.42 284.25L127.57 292.95H133.42V284.25ZM140.286 296.625L141.561 295.25C142.661 296.65 144.111 297.45 146.161 297.45C148.436 297.45 150.011 295.9 150.011 293.875C150.011 291.675 148.436 290.275 146.186 290.275C144.711 290.275 143.461 290.75 142.336 291.85L140.811 291.325V282.325H151.011V284.175H142.886V289.975C143.686 289.175 145.111 288.475 146.786 288.475C149.561 288.475 152.086 290.375 152.086 293.8C152.086 297.2 149.511 299.3 146.161 299.3C143.336 299.3 141.536 298.275 140.286 296.625ZM154.657 290.7C154.657 286.175 156.757 282.075 161.432 282.075C163.582 282.075 165.032 282.9 166.057 284.075L165.007 285.625C164.157 284.625 163.182 283.925 161.432 283.925C158.207 283.925 156.732 287.2 156.732 290.475C156.732 290.7 156.732 290.9 156.757 291.125C157.482 289.975 159.332 288.525 161.482 288.525C164.482 288.525 166.932 290.3 166.932 293.85C166.932 296.75 164.732 299.3 161.082 299.3C156.432 299.3 154.657 295.225 154.657 290.7ZM164.832 293.925C164.832 291.475 163.132 290.325 160.982 290.325C159.332 290.325 157.732 291.35 156.807 292.825C157.007 294.9 158.107 297.45 161.007 297.45C163.582 297.45 164.832 295.525 164.832 293.925ZM171.177 299L177.902 284.175H168.927V282.325H180.302V283.75L173.477 299H171.177ZM182.319 294.775C182.319 292.55 184.219 291.025 186.294 290.4C184.369 289.85 182.594 288.6 182.594 286.4C182.594 283.4 185.519 282.075 188.294 282.075C191.044 282.075 194.019 283.4 194.019 286.4C194.019 288.6 192.219 289.85 190.294 290.4C192.369 291.025 194.269 292.55 194.269 294.775C194.269 297.6 191.569 299.3 188.294 299.3C184.994 299.3 182.319 297.625 182.319 294.775ZM191.919 286.675C191.919 284.95 190.294 283.925 188.294 283.925C186.269 283.925 184.669 284.95 184.669 286.675C184.669 288.7 187.294 289.375 188.294 289.55C189.319 289.375 191.919 288.7 191.919 286.675ZM192.169 294.55C192.169 292.375 189.319 291.45 188.294 291.325C187.269 291.45 184.394 292.375 184.394 294.55C184.394 296.35 186.219 297.45 188.294 297.45C190.344 297.45 192.169 296.35 192.169 294.55ZM197.645 297.275L198.695 295.725C199.545 296.725 200.545 297.425 202.27 297.425C205.645 297.425 206.97 294.05 206.97 290.9C206.97 290.675 206.97 290.45 206.945 290.225C206.22 291.375 204.37 292.825 202.245 292.825C199.245 292.825 196.77 291.05 196.77 287.5C196.77 284.625 198.97 282.05 202.595 282.05C207.27 282.05 209.045 286.125 209.045 290.675C209.045 295.175 206.945 299.275 202.27 299.275C200.145 299.275 198.695 298.475 197.645 297.275ZM206.87 288.55C206.695 286.475 205.595 283.9 202.695 283.9C200.145 283.9 198.87 285.85 198.87 287.425C198.87 289.875 200.57 291.025 202.72 291.025C204.37 291.025 205.995 290.025 206.87 288.55ZM211.59 290.675C211.59 286.6 213.39 282.075 217.965 282.075C222.515 282.075 224.34 286.6 224.34 290.675C224.34 294.725 222.515 299.3 217.965 299.3C213.39 299.3 211.59 294.725 211.59 290.675ZM222.215 290.675C222.215 287.35 221.14 283.925 217.965 283.925C214.79 283.925 213.715 287.35 213.715 290.675C213.715 294 214.79 297.45 217.965 297.45C221.14 297.45 222.215 294 222.215 290.675Z" fill="white"/>
</svg>
