<svg width="510" height="86" viewBox="0 0 510 86" fill="none" xmlns="http://www.w3.org/2000/svg">
<path d="M75.3037 32.5807L80.1635 26.7585C83.5317 29.5373 87.0563 31.2995 91.3328 31.2995C94.701 31.2995 96.7339 29.9643 96.7339 27.7689V27.6667C96.7339 25.5856 95.4528 24.515 89.1975 22.9151C81.6612 20.9904 76.8014 18.9094 76.8014 11.4813V11.379C76.8014 4.58849 82.2506 0.101562 89.8892 0.101562C95.3325 0.101562 99.9878 1.80972 103.777 4.85313L99.5006 11.0482C96.1926 8.75063 92.9326 7.36124 89.781 7.36124C86.6293 7.36124 84.9753 8.79874 84.9753 10.6212V10.7294C84.9753 13.1894 86.5752 13.9894 93.0409 15.6434C100.625 17.6222 104.902 20.3529 104.902 26.8667V26.969C104.902 34.3971 99.236 38.5652 91.1704 38.5652C85.5106 38.5652 79.7906 36.5864 75.3037 32.5807Z" fill="#272727"/>
<path d="M110.777 0.637695H119.005V38.0308H110.777V0.637695Z" fill="#272727"/>
<path d="M124.876 19.4393V19.3371C124.876 8.7032 133.26 0 144.803 0C156.345 0 164.621 8.60696 164.621 19.2348V19.3371C164.621 29.971 156.236 38.6742 144.694 38.6742C133.152 38.6742 124.876 30.0672 124.876 19.4393ZM156.02 19.4393V19.3371C156.02 12.9255 151.316 7.58447 144.694 7.58447C138.072 7.58447 133.477 12.8232 133.477 19.2348V19.3371C133.477 25.7487 138.18 31.0897 144.803 31.0897C151.425 31.0897 156.02 25.851 156.02 19.4393Z" fill="#272727"/>
<path d="M170.496 0.637695H178.081L195.602 23.6618V0.637695H203.721V38.0308H196.72L178.604 14.2609V38.0308H170.484V0.637695H170.496Z" fill="#272727"/>
<path d="M0 47.2038H14.5855C26.3381 47.2038 34.4579 55.2694 34.4579 65.795V65.8973C34.4579 76.4229 26.3381 84.5908 14.5855 84.5908H0V47.1978V47.2038ZM14.5855 77.1748C21.3219 77.1748 25.857 72.6337 25.857 66.0056V65.9033C25.857 59.2812 21.3219 54.6258 14.5855 54.6258H8.22804V77.1748H14.5855Z" fill="#272727"/>
<path d="M40.9601 47.2034H69.1628V54.5172H49.128V62.1017H66.7569V69.4155H49.128V77.2707H69.4274V84.5845H40.9541V47.1914L40.9601 47.2034Z" fill="#272727"/>
<path d="M75.3037 79.1533L80.1696 73.3311C83.5378 76.1098 87.0623 77.8721 91.3388 77.8721C94.701 77.8721 96.7339 76.5369 96.7339 74.3415V74.2393C96.7339 72.1582 95.4528 71.0876 89.1975 69.4877C81.6672 67.563 76.8014 65.482 76.8014 58.0539V57.9516C76.8014 51.1671 82.2506 46.6802 89.8892 46.6802C95.3385 46.6802 99.9878 48.3883 103.777 51.4317L99.5067 57.6268C96.1926 55.3292 92.9326 53.9399 89.787 53.9399C86.6413 53.9399 84.9753 55.3774 84.9753 57.1998V57.3081C84.9753 59.7681 86.5812 60.568 93.0469 62.222C100.631 64.2008 104.908 66.9315 104.908 73.4454V73.5476C104.908 80.9757 99.242 85.1439 91.1764 85.1439C85.5106 85.1439 79.7967 83.165 75.3097 79.1593L75.3037 79.1533Z" fill="#272727"/>
<path d="M110.777 47.2036H119.005V84.5967H110.777V47.2036Z" fill="#272727"/>
<path d="M126.934 66.0053V65.903C126.934 55.2691 135.216 46.5659 146.541 46.5659C153.278 46.5659 157.332 48.3823 161.229 51.6964L156.051 57.9456C153.163 55.5458 150.601 54.1504 146.277 54.1504C140.292 54.1504 135.535 59.4373 135.535 65.8008V65.903C135.535 72.7417 140.238 77.7639 146.86 77.7639C149.855 77.7639 152.526 77.0181 154.607 75.5204V70.1794H146.325V63.0761H162.57V79.3157C158.721 82.5756 153.428 85.2461 146.595 85.2461C134.951 85.2461 126.94 77.0722 126.94 66.0113L126.934 66.0053Z" fill="#272727"/>
<path d="M170.496 47.2036H178.081L195.602 70.2277V47.2036H203.721V84.5967H196.72L178.604 60.8268V84.5967H170.484V47.2036H170.496Z" fill="#272727"/>
<path d="M212.899 76.0552H221.554V84.596H212.899V76.0552Z" fill="#272727"/>
<path d="M239.438 54.8302V54.7881C239.438 50.7643 242.391 47.2036 246.793 47.2036C249.265 47.2036 250.793 47.9133 252.261 49.1524L251.19 50.4094C250.059 49.423 248.802 48.7313 246.727 48.7313C243.479 48.7313 241.152 51.474 241.152 54.746V54.7881C241.152 58.2886 243.395 60.8869 246.956 60.8869C248.634 60.8869 250.186 60.2374 251.19 59.4194V55.7745H246.727V54.2889H252.784V60.1351C251.425 61.3501 249.368 62.3786 246.896 62.3786C242.288 62.3786 239.438 59.0284 239.438 54.8362V54.8302Z" fill="#272727"/>
<path d="M256.074 47.4556H266.678V48.9652H257.728V53.9754H265.734V55.4851H257.728V60.6216H266.78V62.1313H256.074V47.4616V47.4556Z" fill="#272727"/>
<path d="M269.281 47.4556H270.959L276.3 55.4611L281.641 47.4556H283.319V62.1253H281.665V50.2464L276.324 58.1015H276.24L270.899 50.2644V62.1253H269.287V47.4556H269.281Z" fill="#272727"/>
<path d="M287.007 47.4556H297.611V48.9652H288.661V53.9754H296.666V55.4851H288.661V60.6216H297.713V62.1313H287.007V47.4616V47.4556Z" fill="#272727"/>
<path d="M300.324 47.4556H301.978V62.1253H300.324V47.4556Z" fill="#272727"/>
<path d="M305.69 47.4556H307.241L316.48 59.2082V47.4556H318.092V62.1253H316.769L307.296 50.096V62.1253H305.684V47.4556H305.69Z" fill="#272727"/>
<path d="M320.677 59.99L321.705 58.775C323.233 60.1584 324.701 60.8501 326.734 60.8501C328.767 60.8501 330 59.8035 330 58.354V58.3119C330 56.9526 329.266 56.1767 326.186 55.5271C322.812 54.7933 321.26 53.7047 321.26 51.2928V51.2507C321.26 48.9471 323.293 47.251 326.078 47.251C328.213 47.251 329.747 47.8585 331.233 49.0554L330.27 50.3305C328.905 49.2178 327.546 48.7366 326.036 48.7366C324.129 48.7366 322.914 49.7831 322.914 51.1064V51.1485C322.914 52.5318 323.672 53.3077 326.896 53.9994C330.162 54.7091 331.672 55.9061 331.672 58.1495V58.1916C331.672 60.7057 329.579 62.3417 326.661 62.3417C324.334 62.3417 322.427 61.5658 320.671 59.996L320.677 59.99Z" fill="#272727"/>
<path d="M339.533 47.3535H341.085L347.767 62.1255H345.987L344.266 58.2521H336.285L334.547 62.1255H332.851L339.533 47.3535ZM343.623 56.7604L340.291 49.2782L336.941 56.7604H343.623Z" fill="#272727"/>
<path d="M349.938 47.4556H351.616L356.957 55.4611L362.298 47.4556H363.976V62.1253H362.322V50.2464L356.981 58.1015H356.896L351.555 50.2644V62.1253H349.944V47.4556H349.938Z" fill="#272727"/>
<path d="M374.609 47.4557H379.704C384.317 47.4557 387.499 50.6194 387.499 54.7455V54.7876C387.499 58.9136 384.317 62.1194 379.704 62.1194H374.609V47.4497V47.4557ZM379.704 60.5917C383.415 60.5917 385.779 58.0776 385.779 54.8297V54.7876C385.779 51.5397 383.409 48.9834 379.704 48.9834H376.269V60.5917H379.704Z" fill="#272727"/>
<path d="M390.394 47.4556H400.997V48.9652H392.048V53.9754H400.053V55.4851H392.048V60.6216H401.1V62.1313H390.394V47.4616V47.4556Z" fill="#272727"/>
<path d="M403.595 47.4556H405.147L414.385 59.2082V47.4556H415.997V62.1253H414.674L405.201 50.096V62.1253H403.589V47.4556H403.595Z" fill="#272727"/>
<path d="M240.087 69.6807H250.625V71.2084H241.741V76.4471H249.68V77.9568H241.741V84.3504H240.087V69.6807Z" fill="#272727"/>
<path d="M252.121 77.0538V77.0117C252.121 72.9699 255.158 69.4272 259.621 69.4272C264.084 69.4272 267.08 72.9278 267.08 76.9696V77.0117C267.08 81.0536 264.042 84.5962 259.579 84.5962C255.116 84.5962 252.121 81.0957 252.121 77.0538ZM265.365 77.0538V77.0117C265.365 73.6796 262.935 70.955 259.579 70.955C256.223 70.955 253.835 73.6375 253.835 76.9696V77.0117C253.835 80.3438 256.265 83.0685 259.621 83.0685C262.978 83.0685 265.365 80.3859 265.365 77.0538Z" fill="#272727"/>
<path d="M270.028 69.6807H276.338C278.142 69.6807 279.586 70.228 280.506 71.1482C281.216 71.858 281.637 72.8865 281.637 74.0413V74.0834C281.637 76.5133 279.958 77.9388 277.655 78.3598L282.16 84.3504H280.127L275.875 78.6485H271.682V84.3504H270.028V69.6807ZM276.187 77.1629C278.389 77.1629 279.958 76.0321 279.958 74.1435V74.1014C279.958 72.297 278.575 71.2084 276.205 71.2084H271.676V77.1629H276.181H276.187Z" fill="#272727"/>
<path d="M288.084 71.2084H283.158V69.6807H294.682V71.2084H289.756V84.3444H288.078V71.2084H288.084Z" fill="#272727"/>
<path d="M295.86 82.2083L296.889 80.9933C298.417 82.3767 299.884 83.0684 301.917 83.0684C303.95 83.0684 305.183 82.0218 305.183 80.5723V80.5302C305.183 79.1709 304.449 78.395 301.37 77.7454C297.996 77.0116 296.444 75.923 296.444 73.5111V73.469C296.444 71.1654 298.477 69.4692 301.262 69.4692C303.397 69.4692 304.931 70.0767 306.416 71.2736L305.454 72.5487C304.089 71.436 302.729 70.9549 301.22 70.9549C299.313 70.9549 298.098 72.0014 298.098 73.3246V73.3667C298.098 74.7501 298.856 75.526 302.08 76.2177C305.346 76.9274 306.855 78.1243 306.855 80.3678V80.4099C306.855 82.924 304.762 84.56 301.845 84.56C299.517 84.56 297.611 83.7841 295.854 82.2143L295.86 82.2083Z" fill="#272727"/>
<path d="M308.768 77.0538V77.0117C308.768 72.8616 311.871 69.4272 316.184 69.4272C318.842 69.4272 320.436 70.3715 321.904 71.7549L320.773 72.9699C319.534 71.797 318.156 70.961 316.16 70.961C312.912 70.961 310.482 73.6014 310.482 76.9756V77.0177C310.482 80.41 312.936 83.0745 316.16 83.0745C318.175 83.0745 319.492 82.2986 320.899 80.9573L321.988 82.0279C320.46 83.5797 318.782 84.6082 316.124 84.6082C311.889 84.6082 308.768 81.2761 308.768 77.0658V77.0538Z" fill="#272727"/>
<path d="M324.269 69.6807H325.923V76.2005H334.391V69.6807H336.045V84.3504H334.391V77.7523H325.923V84.3504H324.269V69.6807Z" fill="#272727"/>
<path d="M339.726 69.6807H346.035C347.839 69.6807 349.283 70.228 350.203 71.1482C350.913 71.858 351.334 72.8865 351.334 74.0413V74.0834C351.334 76.5133 349.656 77.9388 347.352 78.3598L351.857 84.3504H349.824L345.572 78.6485H341.38V84.3504H339.726V69.6807ZM345.885 77.1629C348.086 77.1629 349.656 76.0321 349.656 74.1435V74.1014C349.656 72.297 348.272 71.2084 345.903 71.2084H341.374V77.1629H345.879H345.885Z" fill="#272727"/>
<path d="M354.37 69.6807H356.024V84.3504H354.37V69.6807Z" fill="#272727"/>
<path d="M363.249 71.2084H358.323V69.6807H369.847V71.2084H364.921V84.3444H363.243V71.2084H363.249Z" fill="#272727"/>
<path d="M376.528 71.2084H371.602V69.6807H383.126V71.2084H378.2V84.3444H376.522V71.2084H376.528Z" fill="#272727"/>
<path d="M392.065 77.0538V77.0117C392.065 72.9879 395.019 69.4272 399.421 69.4272C401.893 69.4272 403.427 70.137 404.889 71.376L403.818 72.633C402.687 71.6466 401.43 70.955 399.355 70.955C396.107 70.955 393.78 73.6976 393.78 76.9696V77.0117C393.78 80.5122 396.023 83.1106 399.584 83.1106C401.262 83.1106 402.814 82.461 403.818 81.643V77.9981H399.355V76.5125H405.412V82.3587C404.053 83.5737 401.996 84.6022 399.524 84.6022C394.91 84.6022 392.065 81.252 392.065 77.0598V77.0538Z" fill="#272727"/>
<path d="M408.701 69.6807H419.305V71.1903H410.355V76.2005H418.361V77.7102H410.355V82.8467H419.407V84.3564H408.701V69.6867V69.6807Z" fill="#272727"/>
<path d="M421.188 82.2083L422.216 80.9933C423.744 82.3767 425.211 83.0684 427.244 83.0684C429.277 83.0684 430.51 82.0218 430.51 80.5723V80.5302C430.51 79.1709 429.777 78.395 426.697 77.7454C423.323 77.0116 421.771 75.923 421.771 73.5111V73.469C421.771 71.1654 423.804 69.4692 426.589 69.4692C428.724 69.4692 430.258 70.0767 431.743 71.2736L430.781 72.5487C429.416 71.436 428.056 70.9549 426.547 70.9549C424.64 70.9549 423.425 72.0014 423.425 73.3246V73.3667C423.425 74.7501 424.183 75.526 427.407 76.2177C430.673 76.9274 432.182 78.1243 432.182 80.3678V80.4099C432.182 82.924 430.089 84.56 427.172 84.56C424.845 84.56 422.938 83.7841 421.182 82.2143L421.188 82.2083Z" fill="#272727"/>
<path d="M438.763 71.2084H433.837V69.6807H445.361V71.2084H440.435V84.3444H438.757V71.2084H438.763Z" fill="#272727"/>
<path d="M451.13 69.5713H452.681L459.364 84.3433H457.583L455.863 80.4698H447.882L446.143 84.3433H444.447L451.13 69.5713ZM455.213 78.9782L451.881 71.496L448.531 78.9782H455.213Z" fill="#272727"/>
<path d="M461.533 69.6803H463.187V82.8163H471.445V84.344H461.533V69.6743V69.6803Z" fill="#272727"/>
<path d="M475.534 71.2084H470.608V69.6807H482.132V71.2084H477.206V84.3444H475.528V71.2084H475.534Z" fill="#272727"/>
<path d="M484.401 69.6807H495.005V71.1903H486.055V76.2005H494.061V77.7102H486.055V82.8467H495.107V84.3564H484.401V69.6867V69.6807Z" fill="#272727"/>
<path d="M497.598 69.6807H499.15L508.388 81.4333V69.6807H510V84.3504H508.677L499.204 72.3211V84.3504H497.592V69.6807H497.598Z" fill="#272727"/>
</svg>
